<svg xmlns="http://www.w3.org/2000/svg" xmlns:xlink="http://www.w3.org/1999/xlink" width="500" zoomAndPan="magnify" viewBox="0 0 375 374.999991" height="500" preserveAspectRatio="xMidYMid meet" version="1.0"><defs><g/><clipPath id="be3e18466e"><path d="M 97.441406 142.472656 L 277.558594 142.472656 L 277.558594 232.527344 L 97.441406 232.527344 Z M 97.441406 142.472656 " clip-rule="nonzero"/></clipPath><clipPath id="71a7ff14c6"><path d="M 232.527344 142.472656 C 257.398438 142.472656 277.558594 162.632812 277.558594 187.5 C 277.558594 212.367188 257.398438 232.527344 232.527344 232.527344 L 142.472656 232.527344 C 117.601562 232.527344 97.441406 212.367188 97.441406 187.5 C 97.441406 162.632812 117.601562 142.472656 142.472656 142.472656 Z M 232.527344 142.472656 " clip-rule="nonzero"/></clipPath><clipPath id="8adc67b4dc"><path d="M 205.171875 155.238281 L 240.519531 155.238281 L 240.519531 181.855469 L 205.171875 181.855469 Z M 205.171875 155.238281 " clip-rule="nonzero"/></clipPath><clipPath id="f644b7a564"><path d="M 205.171875 155.238281 L 231.683594 155.238281 L 240.519531 168.546875 L 231.683594 181.855469 L 205.171875 181.855469 L 214.007812 168.546875 Z M 205.171875 155.238281 " clip-rule="nonzero"/></clipPath><linearGradient x1="0.0053959" gradientTransform="matrix(0.103977, 0, 0, 0.103977, 205.17148, 155.239086)" y1="128" x2="339.963881" gradientUnits="userSpaceOnUse" y2="128" id="010863d404"><stop stop-opacity="1" stop-color="rgb(100%, 87.098694%, 34.899902%)" offset="0"/><stop stop-opacity="1" stop-color="rgb(100%, 86.979675%, 34.880066%)" offset="0.0078125"/><stop stop-opacity="1" stop-color="rgb(100%, 86.74469%, 34.843445%)" offset="0.015625"/><stop stop-opacity="1" stop-color="rgb(100%, 86.508179%, 34.806824%)" offset="0.0234375"/><stop stop-opacity="1" stop-color="rgb(100%, 86.273193%, 34.770203%)" offset="0.03125"/><stop stop-opacity="1" stop-color="rgb(100%, 86.036682%, 34.733582%)" offset="0.0390625"/><stop stop-opacity="1" stop-color="rgb(100%, 85.800171%, 34.69696%)" offset="0.046875"/><stop stop-opacity="1" stop-color="rgb(100%, 85.565186%, 34.660339%)" offset="0.0546875"/><stop stop-opacity="1" stop-color="rgb(100%, 85.328674%, 34.623718%)" offset="0.0625"/><stop stop-opacity="1" stop-color="rgb(100%, 85.092163%, 34.587097%)" offset="0.0703125"/><stop stop-opacity="1" stop-color="rgb(100%, 84.857178%, 34.550476%)" offset="0.078125"/><stop stop-opacity="1" stop-color="rgb(100%, 84.620667%, 34.513855%)" offset="0.0859375"/><stop stop-opacity="1" stop-color="rgb(100%, 84.385681%, 34.477234%)" offset="0.09375"/><stop stop-opacity="1" stop-color="rgb(100%, 84.14917%, 34.440613%)" offset="0.101562"/><stop stop-opacity="1" stop-color="rgb(100%, 83.912659%, 34.403992%)" offset="0.109375"/><stop stop-opacity="1" stop-color="rgb(100%, 83.677673%, 34.367371%)" offset="0.117187"/><stop stop-opacity="1" stop-color="rgb(100%, 83.441162%, 34.329224%)" offset="0.125"/><stop stop-opacity="1" stop-color="rgb(100%, 83.204651%, 34.292603%)" offset="0.132812"/><stop stop-opacity="1" stop-color="rgb(100%, 82.969666%, 34.255981%)" offset="0.140625"/><stop stop-opacity="1" stop-color="rgb(100%, 82.733154%, 34.21936%)" offset="0.148437"/><stop stop-opacity="1" stop-color="rgb(100%, 82.498169%, 34.182739%)" offset="0.15625"/><stop stop-opacity="1" stop-color="rgb(100%, 82.261658%, 34.146118%)" offset="0.164062"/><stop stop-opacity="1" stop-color="rgb(100%, 82.025146%, 34.109497%)" offset="0.171875"/><stop stop-opacity="1" stop-color="rgb(100%, 81.790161%, 34.072876%)" offset="0.179687"/><stop stop-opacity="1" stop-color="rgb(100%, 81.55365%, 34.036255%)" offset="0.1875"/><stop stop-opacity="1" stop-color="rgb(100%, 81.318665%, 33.999634%)" offset="0.195312"/><stop stop-opacity="1" stop-color="rgb(100%, 81.082153%, 33.963013%)" offset="0.203125"/><stop stop-opacity="1" stop-color="rgb(100%, 80.845642%, 33.926392%)" offset="0.210938"/><stop stop-opacity="1" stop-color="rgb(100%, 80.610657%, 33.889771%)" offset="0.21875"/><stop stop-opacity="1" stop-color="rgb(100%, 80.374146%, 33.853149%)" offset="0.226562"/><stop stop-opacity="1" stop-color="rgb(100%, 80.137634%, 33.816528%)" offset="0.234375"/><stop stop-opacity="1" stop-color="rgb(100%, 79.902649%, 33.779907%)" offset="0.242187"/><stop stop-opacity="1" stop-color="rgb(100%, 79.666138%, 33.74176%)" offset="0.25"/><stop stop-opacity="1" stop-color="rgb(100%, 79.431152%, 33.705139%)" offset="0.257812"/><stop stop-opacity="1" stop-color="rgb(100%, 79.194641%, 33.668518%)" offset="0.265625"/><stop stop-opacity="1" stop-color="rgb(100%, 78.95813%, 33.631897%)" offset="0.273438"/><stop stop-opacity="1" stop-color="rgb(100%, 78.723145%, 33.595276%)" offset="0.28125"/><stop stop-opacity="1" stop-color="rgb(100%, 78.486633%, 33.558655%)" offset="0.289062"/><stop stop-opacity="1" stop-color="rgb(100%, 78.250122%, 33.522034%)" offset="0.296875"/><stop stop-opacity="1" stop-color="rgb(100%, 78.015137%, 33.485413%)" offset="0.304688"/><stop stop-opacity="1" stop-color="rgb(100%, 77.778625%, 33.448792%)" offset="0.3125"/><stop stop-opacity="1" stop-color="rgb(100%, 77.54364%, 33.41217%)" offset="0.320312"/><stop stop-opacity="1" stop-color="rgb(100%, 77.307129%, 33.375549%)" offset="0.328125"/><stop stop-opacity="1" stop-color="rgb(100%, 77.070618%, 33.338928%)" offset="0.335938"/><stop stop-opacity="1" stop-color="rgb(100%, 76.835632%, 33.302307%)" offset="0.34375"/><stop stop-opacity="1" stop-color="rgb(100%, 76.599121%, 33.265686%)" offset="0.351562"/><stop stop-opacity="1" stop-color="rgb(100%, 76.36261%, 33.229065%)" offset="0.359375"/><stop stop-opacity="1" stop-color="rgb(100%, 76.127625%, 33.192444%)" offset="0.367187"/><stop stop-opacity="1" stop-color="rgb(100%, 75.891113%, 33.154297%)" offset="0.375"/><stop stop-opacity="1" stop-color="rgb(100%, 75.656128%, 33.117676%)" offset="0.382812"/><stop stop-opacity="1" stop-color="rgb(100%, 75.419617%, 33.081055%)" offset="0.390625"/><stop stop-opacity="1" stop-color="rgb(100%, 75.183105%, 33.044434%)" offset="0.398437"/><stop stop-opacity="1" stop-color="rgb(100%, 74.94812%, 33.007812%)" offset="0.40625"/><stop stop-opacity="1" stop-color="rgb(100%, 74.711609%, 32.971191%)" offset="0.414062"/><stop stop-opacity="1" stop-color="rgb(100%, 74.475098%, 32.93457%)" offset="0.421875"/><stop stop-opacity="1" stop-color="rgb(100%, 74.240112%, 32.897949%)" offset="0.429688"/><stop stop-opacity="1" stop-color="rgb(100%, 74.003601%, 32.861328%)" offset="0.4375"/><stop stop-opacity="1" stop-color="rgb(100%, 73.768616%, 32.824707%)" offset="0.445312"/><stop stop-opacity="1" stop-color="rgb(100%, 73.532104%, 32.788086%)" offset="0.453125"/><stop stop-opacity="1" stop-color="rgb(100%, 73.295593%, 32.751465%)" offset="0.460938"/><stop stop-opacity="1" stop-color="rgb(100%, 73.060608%, 32.714844%)" offset="0.46875"/><stop stop-opacity="1" stop-color="rgb(100%, 72.824097%, 32.678223%)" offset="0.476562"/><stop stop-opacity="1" stop-color="rgb(100%, 72.589111%, 32.641602%)" offset="0.484375"/><stop stop-opacity="1" stop-color="rgb(100%, 72.3526%, 32.60498%)" offset="0.492188"/><stop stop-opacity="1" stop-color="rgb(100%, 72.116089%, 32.566833%)" offset="0.5"/><stop stop-opacity="1" stop-color="rgb(100%, 71.881104%, 32.530212%)" offset="0.507813"/><stop stop-opacity="1" stop-color="rgb(100%, 71.644592%, 32.493591%)" offset="0.515625"/><stop stop-opacity="1" stop-color="rgb(100%, 71.408081%, 32.45697%)" offset="0.523438"/><stop stop-opacity="1" stop-color="rgb(100%, 71.173096%, 32.420349%)" offset="0.53125"/><stop stop-opacity="1" stop-color="rgb(100%, 70.936584%, 32.383728%)" offset="0.539063"/><stop stop-opacity="1" stop-color="rgb(100%, 70.701599%, 32.347107%)" offset="0.546875"/><stop stop-opacity="1" stop-color="rgb(100%, 70.465088%, 32.310486%)" offset="0.554688"/><stop stop-opacity="1" stop-color="rgb(100%, 70.228577%, 32.273865%)" offset="0.5625"/><stop stop-opacity="1" stop-color="rgb(100%, 69.993591%, 32.237244%)" offset="0.570313"/><stop stop-opacity="1" stop-color="rgb(100%, 69.75708%, 32.200623%)" offset="0.578125"/><stop stop-opacity="1" stop-color="rgb(100%, 69.520569%, 32.164001%)" offset="0.585938"/><stop stop-opacity="1" stop-color="rgb(100%, 69.285583%, 32.12738%)" offset="0.59375"/><stop stop-opacity="1" stop-color="rgb(100%, 69.049072%, 32.090759%)" offset="0.601562"/><stop stop-opacity="1" stop-color="rgb(100%, 68.814087%, 32.054138%)" offset="0.609375"/><stop stop-opacity="1" stop-color="rgb(100%, 68.577576%, 32.015991%)" offset="0.617188"/><stop stop-opacity="1" stop-color="rgb(100%, 68.341064%, 31.97937%)" offset="0.625"/><stop stop-opacity="1" stop-color="rgb(100%, 68.106079%, 31.942749%)" offset="0.632812"/><stop stop-opacity="1" stop-color="rgb(100%, 67.869568%, 31.906128%)" offset="0.640625"/><stop stop-opacity="1" stop-color="rgb(100%, 67.633057%, 31.869507%)" offset="0.648438"/><stop stop-opacity="1" stop-color="rgb(100%, 67.398071%, 31.832886%)" offset="0.65625"/><stop stop-opacity="1" stop-color="rgb(100%, 67.16156%, 31.796265%)" offset="0.664062"/><stop stop-opacity="1" stop-color="rgb(100%, 66.926575%, 31.759644%)" offset="0.671875"/><stop stop-opacity="1" stop-color="rgb(100%, 66.690063%, 31.723022%)" offset="0.679688"/><stop stop-opacity="1" stop-color="rgb(100%, 66.453552%, 31.686401%)" offset="0.6875"/><stop stop-opacity="1" stop-color="rgb(100%, 66.218567%, 31.64978%)" offset="0.695312"/><stop stop-opacity="1" stop-color="rgb(100%, 65.982056%, 31.613159%)" offset="0.703125"/><stop stop-opacity="1" stop-color="rgb(100%, 65.745544%, 31.576538%)" offset="0.710938"/><stop stop-opacity="1" stop-color="rgb(100%, 65.510559%, 31.539917%)" offset="0.71875"/><stop stop-opacity="1" stop-color="rgb(100%, 65.274048%, 31.503296%)" offset="0.726562"/><stop stop-opacity="1" stop-color="rgb(100%, 65.039062%, 31.466675%)" offset="0.734375"/><stop stop-opacity="1" stop-color="rgb(100%, 64.802551%, 31.428528%)" offset="0.742188"/><stop stop-opacity="1" stop-color="rgb(100%, 64.56604%, 31.391907%)" offset="0.75"/><stop stop-opacity="1" stop-color="rgb(100%, 64.331055%, 31.355286%)" offset="0.757812"/><stop stop-opacity="1" stop-color="rgb(100%, 64.094543%, 31.318665%)" offset="0.765625"/><stop stop-opacity="1" stop-color="rgb(100%, 63.859558%, 31.282043%)" offset="0.773438"/><stop stop-opacity="1" stop-color="rgb(100%, 63.623047%, 31.245422%)" offset="0.78125"/><stop stop-opacity="1" stop-color="rgb(100%, 63.386536%, 31.208801%)" offset="0.789062"/><stop stop-opacity="1" stop-color="rgb(100%, 63.15155%, 31.17218%)" offset="0.796875"/><stop stop-opacity="1" stop-color="rgb(100%, 62.915039%, 31.135559%)" offset="0.804688"/><stop stop-opacity="1" stop-color="rgb(100%, 62.678528%, 31.098938%)" offset="0.8125"/><stop stop-opacity="1" stop-color="rgb(100%, 62.443542%, 31.062317%)" offset="0.820312"/><stop stop-opacity="1" stop-color="rgb(100%, 62.207031%, 31.025696%)" offset="0.828125"/><stop stop-opacity="1" stop-color="rgb(100%, 61.972046%, 30.989075%)" offset="0.835938"/><stop stop-opacity="1" stop-color="rgb(100%, 61.735535%, 30.952454%)" offset="0.84375"/><stop stop-opacity="1" stop-color="rgb(100%, 61.499023%, 30.915833%)" offset="0.851562"/><stop stop-opacity="1" stop-color="rgb(100%, 61.264038%, 30.879211%)" offset="0.859375"/><stop stop-opacity="1" stop-color="rgb(100%, 61.027527%, 30.841064%)" offset="0.867188"/><stop stop-opacity="1" stop-color="rgb(100%, 60.791016%, 30.804443%)" offset="0.875"/><stop stop-opacity="1" stop-color="rgb(100%, 60.55603%, 30.767822%)" offset="0.882812"/><stop stop-opacity="1" stop-color="rgb(100%, 60.319519%, 30.731201%)" offset="0.890625"/><stop stop-opacity="1" stop-color="rgb(100%, 60.084534%, 30.69458%)" offset="0.898438"/><stop stop-opacity="1" stop-color="rgb(100%, 59.848022%, 30.657959%)" offset="0.90625"/><stop stop-opacity="1" stop-color="rgb(100%, 59.611511%, 30.621338%)" offset="0.914062"/><stop stop-opacity="1" stop-color="rgb(100%, 59.376526%, 30.584717%)" offset="0.921875"/><stop stop-opacity="1" stop-color="rgb(100%, 59.140015%, 30.548096%)" offset="0.929688"/><stop stop-opacity="1" stop-color="rgb(100%, 58.903503%, 30.511475%)" offset="0.9375"/><stop stop-opacity="1" stop-color="rgb(100%, 58.668518%, 30.474854%)" offset="0.945312"/><stop stop-opacity="1" stop-color="rgb(100%, 58.432007%, 30.438232%)" offset="0.953125"/><stop stop-opacity="1" stop-color="rgb(100%, 58.197021%, 30.401611%)" offset="0.960938"/><stop stop-opacity="1" stop-color="rgb(100%, 57.96051%, 30.36499%)" offset="0.96875"/><stop stop-opacity="1" stop-color="rgb(100%, 57.723999%, 30.328369%)" offset="0.976562"/><stop stop-opacity="1" stop-color="rgb(100%, 57.489014%, 30.291748%)" offset="0.984375"/><stop stop-opacity="1" stop-color="rgb(100%, 57.252502%, 30.253601%)" offset="0.992188"/><stop stop-opacity="1" stop-color="rgb(100%, 57.015991%, 30.21698%)" offset="1"/></linearGradient></defs><g clip-path="url(#be3e18466e)"><g clip-path="url(#71a7ff14c6)"><path fill="#000000" d="M 97.441406 142.472656 L 277.558594 142.472656 L 277.558594 232.527344 L 97.441406 232.527344 Z M 97.441406 142.472656 " fill-opacity="1" fill-rule="nonzero"/></g></g><g clip-path="url(#8adc67b4dc)"><g clip-path="url(#f644b7a564)"><path fill="url(#010863d404)" d="M 205.171875 155.238281 L 205.171875 181.855469 L 240.519531 181.855469 L 240.519531 155.238281 Z M 205.171875 155.238281 " fill-rule="nonzero"/></g></g><g fill="#ffffff" fill-opacity="1"><g transform="translate(126.016388, 179.094539)"><g><path d="M 4.71875 -18.203125 L 7.671875 -9.109375 L 10.875 -18.203125 L 13.75 -18.203125 L 13.75 0 L 11.5 0 L 11.5 -7.265625 L 11.6875 -14.875 L 8.328125 -5.0625 L 7 -5.0625 L 3.90625 -14.609375 L 4.09375 -7.265625 L 4.09375 0 L 1.84375 0 L 1.84375 -18.203125 Z M 4.71875 -18.203125 "/></g></g></g><g fill="#ffffff" fill-opacity="1"><g transform="translate(141.385109, 179.094539)"><g><path d="M 11.0625 0 C 10.96875 -0.175781 10.894531 -0.394531 10.84375 -0.65625 C 10.789062 -0.914062 10.753906 -1.1875 10.734375 -1.46875 C 10.492188 -1.238281 10.226562 -1.019531 9.9375 -0.8125 C 9.65625 -0.601562 9.34375 -0.421875 9 -0.265625 C 8.65625 -0.109375 8.285156 0.015625 7.890625 0.109375 C 7.492188 0.203125 7.078125 0.25 6.640625 0.25 C 5.921875 0.25 5.269531 0.144531 4.6875 -0.0625 C 4.113281 -0.269531 3.625 -0.550781 3.21875 -0.90625 C 2.8125 -1.257812 2.5 -1.679688 2.28125 -2.171875 C 2.0625 -2.660156 1.953125 -3.1875 1.953125 -3.75 C 1.953125 -4.488281 2.097656 -5.140625 2.390625 -5.703125 C 2.691406 -6.265625 3.113281 -6.726562 3.65625 -7.09375 C 4.195312 -7.46875 4.847656 -7.742188 5.609375 -7.921875 C 6.367188 -8.109375 7.222656 -8.203125 8.171875 -8.203125 L 10.6875 -8.203125 L 10.6875 -9.265625 C 10.6875 -9.671875 10.609375 -10.035156 10.453125 -10.359375 C 10.304688 -10.691406 10.097656 -10.972656 9.828125 -11.203125 C 9.554688 -11.429688 9.222656 -11.609375 8.828125 -11.734375 C 8.429688 -11.859375 7.984375 -11.921875 7.484375 -11.921875 C 7.023438 -11.921875 6.613281 -11.859375 6.25 -11.734375 C 5.894531 -11.617188 5.59375 -11.460938 5.34375 -11.265625 C 5.09375 -11.078125 4.894531 -10.851562 4.75 -10.59375 C 4.613281 -10.332031 4.546875 -10.0625 4.546875 -9.78125 L 2.21875 -9.78125 C 2.226562 -10.269531 2.351562 -10.75 2.59375 -11.21875 C 2.84375 -11.695312 3.195312 -12.125 3.65625 -12.5 C 4.125 -12.882812 4.691406 -13.191406 5.359375 -13.421875 C 6.023438 -13.660156 6.773438 -13.78125 7.609375 -13.78125 C 8.378906 -13.78125 9.09375 -13.6875 9.75 -13.5 C 10.40625 -13.3125 10.972656 -13.023438 11.453125 -12.640625 C 11.929688 -12.265625 12.304688 -11.789062 12.578125 -11.21875 C 12.859375 -10.65625 13 -9.992188 13 -9.234375 L 13 -2.953125 C 13 -2.503906 13.039062 -2.023438 13.125 -1.515625 C 13.207031 -1.015625 13.328125 -0.578125 13.484375 -0.203125 L 13.484375 0 Z M 6.984375 -1.765625 C 7.429688 -1.765625 7.847656 -1.820312 8.234375 -1.9375 C 8.628906 -2.050781 8.988281 -2.203125 9.3125 -2.390625 C 9.632812 -2.585938 9.910156 -2.804688 10.140625 -3.046875 C 10.367188 -3.296875 10.550781 -3.554688 10.6875 -3.828125 L 10.6875 -6.5625 L 8.546875 -6.5625 C 7.191406 -6.5625 6.140625 -6.359375 5.390625 -5.953125 C 4.640625 -5.554688 4.265625 -4.929688 4.265625 -4.078125 C 4.265625 -3.742188 4.320312 -3.429688 4.4375 -3.140625 C 4.550781 -2.859375 4.71875 -2.613281 4.9375 -2.40625 C 5.164062 -2.207031 5.445312 -2.050781 5.78125 -1.9375 C 6.125 -1.820312 6.523438 -1.765625 6.984375 -1.765625 Z M 6.984375 -1.765625 "/></g></g></g><g fill="#ffffff" fill-opacity="1"><g transform="translate(156.753829, 179.094539)"><g><path d="M 7.765625 -8.515625 L 11.375 -13.53125 L 14.09375 -13.53125 L 9.046875 -6.84375 L 14.234375 0 L 11.546875 0 L 7.8125 -5.15625 L 4.078125 0 L 1.375 0 L 6.546875 -6.84375 L 1.515625 -13.53125 L 4.1875 -13.53125 Z M 7.765625 -8.515625 "/></g></g></g><g fill="#ffffff" fill-opacity="1"><g transform="translate(126.016388, 213.917111)"><g><path d="M 11.703125 -4.609375 C 11.703125 -5.160156 11.570312 -5.628906 11.3125 -6.015625 C 11.0625 -6.398438 10.734375 -6.722656 10.328125 -6.984375 C 9.929688 -7.242188 9.492188 -7.460938 9.015625 -7.640625 C 8.535156 -7.816406 8.078125 -7.972656 7.640625 -8.109375 C 6.992188 -8.316406 6.335938 -8.566406 5.671875 -8.859375 C 5.015625 -9.148438 4.410156 -9.507812 3.859375 -9.9375 C 3.316406 -10.363281 2.875 -10.863281 2.53125 -11.4375 C 2.1875 -12.019531 2.015625 -12.707031 2.015625 -13.5 C 2.015625 -14.28125 2.1875 -14.976562 2.53125 -15.59375 C 2.875 -16.207031 3.328125 -16.726562 3.890625 -17.15625 C 4.453125 -17.582031 5.085938 -17.90625 5.796875 -18.125 C 6.503906 -18.34375 7.210938 -18.453125 7.921875 -18.453125 C 8.710938 -18.453125 9.472656 -18.320312 10.203125 -18.0625 C 10.941406 -17.800781 11.59375 -17.429688 12.15625 -16.953125 C 12.726562 -16.484375 13.1875 -15.910156 13.53125 -15.234375 C 13.875 -14.554688 14.050781 -13.800781 14.0625 -12.96875 L 11.6875 -12.96875 C 11.625 -13.488281 11.492188 -13.960938 11.296875 -14.390625 C 11.109375 -14.828125 10.851562 -15.195312 10.53125 -15.5 C 10.21875 -15.8125 9.84375 -16.050781 9.40625 -16.21875 C 8.96875 -16.394531 8.472656 -16.484375 7.921875 -16.484375 C 7.484375 -16.484375 7.050781 -16.421875 6.625 -16.296875 C 6.207031 -16.171875 5.832031 -15.984375 5.5 -15.734375 C 5.175781 -15.484375 4.914062 -15.171875 4.71875 -14.796875 C 4.519531 -14.429688 4.421875 -14.007812 4.421875 -13.53125 C 4.429688 -13 4.566406 -12.550781 4.828125 -12.1875 C 5.085938 -11.832031 5.414062 -11.53125 5.8125 -11.28125 C 6.207031 -11.03125 6.632812 -10.820312 7.09375 -10.65625 C 7.5625 -10.488281 8 -10.34375 8.40625 -10.21875 C 8.851562 -10.070312 9.304688 -9.910156 9.765625 -9.734375 C 10.222656 -9.554688 10.664062 -9.347656 11.09375 -9.109375 C 11.519531 -8.878906 11.914062 -8.617188 12.28125 -8.328125 C 12.644531 -8.035156 12.960938 -7.703125 13.234375 -7.328125 C 13.515625 -6.960938 13.734375 -6.554688 13.890625 -6.109375 C 14.046875 -5.660156 14.125 -5.164062 14.125 -4.625 C 14.125 -3.8125 13.941406 -3.097656 13.578125 -2.484375 C 13.210938 -1.878906 12.738281 -1.375 12.15625 -0.96875 C 11.582031 -0.5625 10.929688 -0.253906 10.203125 -0.046875 C 9.484375 0.148438 8.765625 0.25 8.046875 0.25 C 7.234375 0.25 6.4375 0.125 5.65625 -0.125 C 4.882812 -0.375 4.191406 -0.734375 3.578125 -1.203125 C 2.960938 -1.671875 2.460938 -2.242188 2.078125 -2.921875 C 1.703125 -3.609375 1.5 -4.382812 1.46875 -5.25 L 3.84375 -5.25 C 3.914062 -4.6875 4.066406 -4.1875 4.296875 -3.75 C 4.535156 -3.3125 4.835938 -2.9375 5.203125 -2.625 C 5.566406 -2.320312 5.988281 -2.09375 6.46875 -1.9375 C 6.945312 -1.789062 7.472656 -1.71875 8.046875 -1.71875 C 8.492188 -1.71875 8.9375 -1.769531 9.375 -1.875 C 9.8125 -1.988281 10.195312 -2.164062 10.53125 -2.40625 C 10.875 -2.644531 11.15625 -2.941406 11.375 -3.296875 C 11.59375 -3.660156 11.703125 -4.097656 11.703125 -4.609375 Z M 11.703125 -4.609375 "/></g></g></g><g fill="#ffffff" fill-opacity="1"><g transform="translate(141.385109, 213.917111)"><g><path d="M 7.9375 -1.625 C 8.351562 -1.625 8.757812 -1.691406 9.15625 -1.828125 C 9.550781 -1.960938 9.898438 -2.144531 10.203125 -2.375 C 10.515625 -2.613281 10.765625 -2.894531 10.953125 -3.21875 C 11.140625 -3.539062 11.238281 -3.890625 11.25 -4.265625 L 13.4375 -4.265625 C 13.4375 -3.660156 13.28125 -3.082031 12.96875 -2.53125 C 12.664062 -1.988281 12.257812 -1.507812 11.75 -1.09375 C 11.238281 -0.6875 10.65625 -0.359375 10 -0.109375 C 9.34375 0.128906 8.65625 0.25 7.9375 0.25 C 6.914062 0.25 6.019531 0.0664062 5.25 -0.296875 C 4.476562 -0.660156 3.835938 -1.15625 3.328125 -1.78125 C 2.816406 -2.40625 2.429688 -3.125 2.171875 -3.9375 C 1.910156 -4.75 1.78125 -5.601562 1.78125 -6.5 L 1.78125 -7.03125 C 1.78125 -7.914062 1.910156 -8.765625 2.171875 -9.578125 C 2.429688 -10.398438 2.816406 -11.117188 3.328125 -11.734375 C 3.835938 -12.359375 4.476562 -12.851562 5.25 -13.21875 C 6.019531 -13.59375 6.914062 -13.78125 7.9375 -13.78125 C 8.738281 -13.78125 9.472656 -13.648438 10.140625 -13.390625 C 10.816406 -13.140625 11.394531 -12.796875 11.875 -12.359375 C 12.363281 -11.921875 12.742188 -11.398438 13.015625 -10.796875 C 13.296875 -10.203125 13.4375 -9.5625 13.4375 -8.875 L 11.25 -8.875 C 11.238281 -9.28125 11.148438 -9.664062 10.984375 -10.03125 C 10.816406 -10.394531 10.585938 -10.710938 10.296875 -10.984375 C 10.003906 -11.265625 9.65625 -11.484375 9.25 -11.640625 C 8.84375 -11.796875 8.40625 -11.875 7.9375 -11.875 C 7.21875 -11.875 6.613281 -11.726562 6.125 -11.4375 C 5.644531 -11.15625 5.253906 -10.78125 4.953125 -10.3125 C 4.648438 -9.851562 4.429688 -9.335938 4.296875 -8.765625 C 4.171875 -8.191406 4.109375 -7.613281 4.109375 -7.03125 L 4.109375 -6.5 C 4.109375 -5.90625 4.171875 -5.316406 4.296875 -4.734375 C 4.429688 -4.160156 4.644531 -3.640625 4.9375 -3.171875 C 5.238281 -2.710938 5.632812 -2.335938 6.125 -2.046875 C 6.613281 -1.765625 7.21875 -1.625 7.9375 -1.625 Z M 7.9375 -1.625 "/></g></g></g><g fill="#ffffff" fill-opacity="1"><g transform="translate(156.753829, 213.917111)"><g><path d="M 4.484375 -11.515625 C 4.972656 -12.222656 5.570312 -12.773438 6.28125 -13.171875 C 6.988281 -13.566406 7.785156 -13.769531 8.671875 -13.78125 C 9.378906 -13.78125 10.019531 -13.675781 10.59375 -13.46875 C 11.175781 -13.269531 11.671875 -12.953125 12.078125 -12.515625 C 12.484375 -12.078125 12.796875 -11.523438 13.015625 -10.859375 C 13.242188 -10.203125 13.359375 -9.421875 13.359375 -8.515625 L 13.359375 0 L 11.046875 0 L 11.046875 -8.546875 C 11.046875 -9.648438 10.78125 -10.472656 10.25 -11.015625 C 9.71875 -11.554688 8.960938 -11.820312 7.984375 -11.8125 C 7.234375 -11.8125 6.554688 -11.628906 5.953125 -11.265625 C 5.347656 -10.910156 4.859375 -10.429688 4.484375 -9.828125 L 4.484375 0 L 2.171875 0 L 2.171875 -19.203125 L 4.484375 -19.203125 Z M 4.484375 -11.515625 "/></g></g></g><g fill="#ffffff" fill-opacity="1"><g transform="translate(172.12255, 213.917111)"><g><path d="M 10.953125 -1.859375 C 10.503906 -1.191406 9.941406 -0.671875 9.265625 -0.296875 C 8.585938 0.0664062 7.804688 0.25 6.921875 0.25 C 6.210938 0.25 5.570312 0.140625 5 -0.078125 C 4.425781 -0.296875 3.929688 -0.640625 3.515625 -1.109375 C 3.109375 -1.578125 2.796875 -2.171875 2.578125 -2.890625 C 2.359375 -3.609375 2.25 -4.472656 2.25 -5.484375 L 2.25 -13.53125 L 4.5625 -13.53125 L 4.5625 -5.46875 C 4.5625 -4.726562 4.617188 -4.113281 4.734375 -3.625 C 4.859375 -3.144531 5.035156 -2.757812 5.265625 -2.46875 C 5.492188 -2.1875 5.773438 -1.988281 6.109375 -1.875 C 6.453125 -1.757812 6.847656 -1.703125 7.296875 -1.703125 C 8.234375 -1.703125 8.988281 -1.890625 9.5625 -2.265625 C 10.144531 -2.648438 10.578125 -3.171875 10.859375 -3.828125 L 10.859375 -13.53125 L 13.1875 -13.53125 L 13.1875 0 L 11.09375 0 Z M 10.953125 -1.859375 "/></g></g></g><g fill="#ffffff" fill-opacity="1"><g transform="translate(187.49127, 213.917111)"><g><path d="M 2.53125 -19.203125 L 9.453125 -19.203125 L 9.453125 -2 L 13.875 -2 L 13.875 0 L 2.53125 0 L 2.53125 -2 L 7.140625 -2 L 7.140625 -17.1875 L 2.53125 -17.1875 Z M 2.53125 -19.203125 "/></g></g></g><g fill="#ffffff" fill-opacity="1"><g transform="translate(202.859991, 213.917111)"><g><path d="M 7.65625 -16.8125 L 7.65625 -13.53125 L 12.8125 -13.53125 L 12.8125 -11.734375 L 7.65625 -11.734375 L 7.65625 -4.390625 C 7.65625 -3.859375 7.71875 -3.421875 7.84375 -3.078125 C 7.976562 -2.742188 8.160156 -2.472656 8.390625 -2.265625 C 8.628906 -2.066406 8.898438 -1.925781 9.203125 -1.84375 C 9.515625 -1.757812 9.835938 -1.71875 10.171875 -1.71875 C 10.421875 -1.71875 10.679688 -1.726562 10.953125 -1.75 C 11.222656 -1.78125 11.484375 -1.816406 11.734375 -1.859375 C 11.984375 -1.898438 12.21875 -1.941406 12.4375 -1.984375 C 12.664062 -2.035156 12.851562 -2.078125 13 -2.109375 L 13.3125 -0.46875 C 13.125 -0.351562 12.890625 -0.25 12.609375 -0.15625 C 12.335938 -0.0703125 12.039062 0 11.71875 0.0625 C 11.394531 0.125 11.050781 0.171875 10.6875 0.203125 C 10.320312 0.234375 9.960938 0.25 9.609375 0.25 C 9.003906 0.25 8.441406 0.164062 7.921875 0 C 7.398438 -0.175781 6.945312 -0.445312 6.5625 -0.8125 C 6.175781 -1.1875 5.875 -1.664062 5.65625 -2.25 C 5.4375 -2.84375 5.328125 -3.554688 5.328125 -4.390625 L 5.328125 -11.734375 L 1.78125 -11.734375 L 1.78125 -13.53125 L 5.328125 -13.53125 L 5.328125 -16.8125 Z M 7.65625 -16.8125 "/></g></g></g><g fill="#ffffff" fill-opacity="1"><g transform="translate(218.228711, 213.917111)"><g><path d="M 8.15625 0.25 C 7.207031 0.25 6.332031 0.0859375 5.53125 -0.234375 C 4.738281 -0.554688 4.054688 -1.007812 3.484375 -1.59375 C 2.921875 -2.175781 2.476562 -2.867188 2.15625 -3.671875 C 1.84375 -4.472656 1.6875 -5.347656 1.6875 -6.296875 L 1.6875 -6.8125 C 1.6875 -7.90625 1.859375 -8.882812 2.203125 -9.75 C 2.554688 -10.613281 3.023438 -11.34375 3.609375 -11.9375 C 4.191406 -12.53125 4.847656 -12.984375 5.578125 -13.296875 C 6.316406 -13.617188 7.078125 -13.78125 7.859375 -13.78125 C 8.828125 -13.78125 9.675781 -13.609375 10.40625 -13.265625 C 11.132812 -12.929688 11.738281 -12.46875 12.21875 -11.875 C 12.707031 -11.28125 13.070312 -10.578125 13.3125 -9.765625 C 13.550781 -8.953125 13.671875 -8.078125 13.671875 -7.140625 L 13.671875 -6.109375 L 4 -6.109375 C 4.019531 -5.484375 4.132812 -4.898438 4.34375 -4.359375 C 4.5625 -3.816406 4.859375 -3.34375 5.234375 -2.9375 C 5.609375 -2.539062 6.050781 -2.222656 6.5625 -1.984375 C 7.082031 -1.753906 7.65625 -1.640625 8.28125 -1.640625 C 9.101562 -1.640625 9.832031 -1.804688 10.46875 -2.140625 C 11.113281 -2.472656 11.648438 -2.914062 12.078125 -3.46875 L 13.5 -2.359375 C 13.269531 -2.015625 12.984375 -1.6875 12.640625 -1.375 C 12.304688 -1.0625 11.914062 -0.785156 11.46875 -0.546875 C 11.03125 -0.304688 10.53125 -0.113281 9.96875 0.03125 C 9.414062 0.175781 8.8125 0.25 8.15625 0.25 Z M 7.859375 -11.875 C 7.390625 -11.875 6.945312 -11.785156 6.53125 -11.609375 C 6.113281 -11.441406 5.738281 -11.191406 5.40625 -10.859375 C 5.070312 -10.535156 4.789062 -10.132812 4.5625 -9.65625 C 4.332031 -9.175781 4.171875 -8.625 4.078125 -8 L 11.359375 -8 L 11.359375 -8.171875 C 11.328125 -8.628906 11.238281 -9.078125 11.09375 -9.515625 C 10.945312 -9.953125 10.734375 -10.347656 10.453125 -10.703125 C 10.171875 -11.054688 9.8125 -11.335938 9.375 -11.546875 C 8.945312 -11.765625 8.441406 -11.875 7.859375 -11.875 Z M 7.859375 -11.875 "/></g></g></g><g fill="#ffffff" fill-opacity="1"><g transform="translate(233.597432, 213.917111)"><g><path d="M 4.25 -13.53125 L 4.421875 -11.53125 C 4.910156 -12.226562 5.507812 -12.773438 6.21875 -13.171875 C 6.9375 -13.566406 7.738281 -13.769531 8.625 -13.78125 C 9.332031 -13.78125 9.972656 -13.679688 10.546875 -13.484375 C 11.128906 -13.285156 11.625 -12.972656 12.03125 -12.546875 C 12.445312 -12.117188 12.765625 -11.578125 12.984375 -10.921875 C 13.203125 -10.265625 13.3125 -9.488281 13.3125 -8.59375 L 13.3125 0 L 11 0 L 11 -8.546875 C 11 -9.140625 10.929688 -9.644531 10.796875 -10.0625 C 10.671875 -10.476562 10.472656 -10.816406 10.203125 -11.078125 C 9.941406 -11.335938 9.617188 -11.523438 9.234375 -11.640625 C 8.859375 -11.753906 8.425781 -11.8125 7.9375 -11.8125 C 7.164062 -11.8125 6.484375 -11.617188 5.890625 -11.234375 C 5.304688 -10.847656 4.835938 -10.335938 4.484375 -9.703125 L 4.484375 0 L 2.171875 0 L 2.171875 -13.53125 Z M 4.25 -13.53125 "/></g></g></g></svg>